<svg xmlns="http://www.w3.org/2000/svg" viewBox="0 0 90 66"><defs><style>.cls-1{fill:#2584ff;}</style></defs><g id="Layer_2" data-name="Layer 2"><g id="Layer_1-2" data-name="Layer 1"><path class="cls-1" d="M88,0H2A2,2,0,0,0,0,2V64a2,2,0,0,0,2,2H88a2,2,0,0,0,2-2V2A2,2,0,0,0,88,0ZM86,4V26.5L70,17.2h-.1c-.1,0-.1-.1-.2-.1s-.1,0-.2-.1H68.3c-.1,0-.1,0-.2.1s-.1.1-.2.1-.1.1-.2.1-.1.1-.2.1h-.1L39.8,42.5,21.1,29.4a.1.1,0,0,1-.1-.1c-.1,0-.1-.1-.2-.1s-.1-.1-.2-.1-.1,0-.2-.1H19.2c-.1,0-.1,0-.2.1s-.1.1-.2.1-.1.1-.2.1a.1.1,0,0,0-.1.1L4,41.7V4ZM4,62V46.9L20.1,33.5,38.8,46.6h0a.76.76,0,0,0,.5.2h.1c.2,0,.3.1.5.1h.5c.1,0,.2-.1.3-.1a.1.1,0,0,0,.1-.1c.1-.1.2-.1.3-.2a.1.1,0,0,0,.1-.1h0l27.9-25L86,31.2V62ZM40,30A10,10,0,1,0,30,20,10,10,0,0,0,40,30Zm0-16a6,6,0,1,1-6,6A6,6,0,0,1,40,14Z"/></g></g></svg>